<mxfile host="app.diagrams.net" modified="2021-01-16T05:33:44.982Z" agent="5.0 (Macintosh; Intel Mac OS X 10_15_7) AppleWebKit/537.36 (KHTML, like Gecko) Chrome/87.0.4280.141 Safari/537.36" etag="hmS9fnRskLbjs5T1ZMXS" version="14.1.9" type="github" pages="2">
  <diagram id="kLP2BdOTn0ogQ7rsq4Yj" name="Page-1">
    <mxGraphModel dx="1176" dy="738" grid="1" gridSize="10" guides="1" tooltips="1" connect="1" arrows="1" fold="1" page="1" pageScale="1" pageWidth="827" pageHeight="1169" background="#114B5F" math="0" shadow="0">
      <root>
        <mxCell id="0" />
        <mxCell id="1" parent="0" />
        <mxCell id="vJ40E24VG2NGmPt7Oyjr-1" value="" style="group" vertex="1" connectable="0" parent="1">
          <mxGeometry x="147" y="100" width="533" height="550" as="geometry" />
        </mxCell>
        <mxCell id="2Gsh4tW_Gu2w8K7v1lou-160" value="" style="shape=table;html=1;whiteSpace=wrap;startSize=0;container=1;collapsible=0;childLayout=tableLayout;comic=1;fillColor=#F45B69;strokeColor=#028090;fontColor=#E4FDE1;fontFamily=Architects Daughter;fontSource=https%3A%2F%2Ffonts.googleapis.com%2Fcss%3Ffamily%3DArchitects%2BDaughter;" parent="vJ40E24VG2NGmPt7Oyjr-1" vertex="1">
          <mxGeometry x="383" y="172" width="150" height="80" as="geometry" />
        </mxCell>
        <mxCell id="2Gsh4tW_Gu2w8K7v1lou-161" value="" style="shape=partialRectangle;html=1;whiteSpace=wrap;collapsible=0;dropTarget=0;pointerEvents=0;fillColor=none;top=0;left=0;bottom=0;right=0;points=[[0,0.5],[1,0.5]];portConstraint=eastwest;strokeColor=#028090;fontColor=#E4FDE1;" parent="2Gsh4tW_Gu2w8K7v1lou-160" vertex="1">
          <mxGeometry width="150" height="40" as="geometry" />
        </mxCell>
        <mxCell id="2Gsh4tW_Gu2w8K7v1lou-162" value="lazy_symbol_ptr section header" style="shape=partialRectangle;html=1;whiteSpace=wrap;connectable=0;overflow=hidden;fillColor=none;top=0;left=0;bottom=0;right=0;strokeColor=#028090;fontColor=#E4FDE1;fontFamily=Architects Daughter;fontSource=https%3A%2F%2Ffonts.googleapis.com%2Fcss%3Ffamily%3DArchitects%2BDaughter;" parent="2Gsh4tW_Gu2w8K7v1lou-161" vertex="1">
          <mxGeometry width="150" height="40" as="geometry" />
        </mxCell>
        <mxCell id="2Gsh4tW_Gu2w8K7v1lou-163" value="" style="shape=partialRectangle;html=1;whiteSpace=wrap;collapsible=0;dropTarget=0;pointerEvents=0;fillColor=none;top=0;left=0;bottom=0;right=0;points=[[0,0.5],[1,0.5]];portConstraint=eastwest;strokeColor=#028090;fontColor=#E4FDE1;" parent="2Gsh4tW_Gu2w8K7v1lou-160" vertex="1">
          <mxGeometry y="40" width="150" height="40" as="geometry" />
        </mxCell>
        <mxCell id="2Gsh4tW_Gu2w8K7v1lou-164" value="..." style="shape=partialRectangle;html=1;whiteSpace=wrap;connectable=0;overflow=hidden;fillColor=none;top=0;left=0;bottom=0;right=0;strokeColor=#028090;fontColor=#E4FDE1;fontFamily=Architects Daughter;fontSource=https%3A%2F%2Ffonts.googleapis.com%2Fcss%3Ffamily%3DArchitects%2BDaughter;" parent="2Gsh4tW_Gu2w8K7v1lou-163" vertex="1">
          <mxGeometry width="150" height="40" as="geometry" />
        </mxCell>
        <mxCell id="VxuPMkLRMoRYzOiPj_SF-3" value="" style="group" parent="vJ40E24VG2NGmPt7Oyjr-1" vertex="1" connectable="0">
          <mxGeometry width="529" height="550" as="geometry" />
        </mxCell>
        <mxCell id="2Gsh4tW_Gu2w8K7v1lou-52" value="" style="shape=table;html=1;whiteSpace=wrap;startSize=0;container=1;collapsible=0;childLayout=tableLayout;comic=1;fillColor=#F45B69;strokeColor=#028090;fontColor=#E4FDE1;fontFamily=Architects Daughter;fontSource=https%3A%2F%2Ffonts.googleapis.com%2Fcss%3Ffamily%3DArchitects%2BDaughter;" parent="VxuPMkLRMoRYzOiPj_SF-3" vertex="1">
          <mxGeometry y="70" width="210" height="377.75" as="geometry" />
        </mxCell>
        <mxCell id="2Gsh4tW_Gu2w8K7v1lou-53" value="" style="shape=partialRectangle;html=1;whiteSpace=wrap;collapsible=0;dropTarget=0;pointerEvents=0;fillColor=none;top=0;left=0;bottom=0;right=0;points=[[0,0.5],[1,0.5]];portConstraint=eastwest;strokeColor=#028090;fontColor=#E4FDE1;" parent="2Gsh4tW_Gu2w8K7v1lou-52" vertex="1">
          <mxGeometry width="210" height="48" as="geometry" />
        </mxCell>
        <mxCell id="2Gsh4tW_Gu2w8K7v1lou-54" value="..." style="shape=partialRectangle;html=1;whiteSpace=wrap;connectable=0;overflow=hidden;fillColor=none;top=0;left=0;bottom=0;right=0;strokeColor=#028090;fontColor=#E4FDE1;fontFamily=Architects Daughter;fontSource=https%3A%2F%2Ffonts.googleapis.com%2Fcss%3Ffamily%3DArchitects%2BDaughter;" parent="2Gsh4tW_Gu2w8K7v1lou-53" vertex="1">
          <mxGeometry width="210" height="48" as="geometry" />
        </mxCell>
        <mxCell id="2Gsh4tW_Gu2w8K7v1lou-55" value="" style="shape=partialRectangle;html=1;whiteSpace=wrap;collapsible=0;dropTarget=0;pointerEvents=0;fillColor=none;top=0;left=0;bottom=0;right=0;points=[[0,0.5],[1,0.5]];portConstraint=eastwest;strokeColor=#028090;fontColor=#E4FDE1;" parent="2Gsh4tW_Gu2w8K7v1lou-52" vertex="1">
          <mxGeometry y="48" width="210" height="47" as="geometry" />
        </mxCell>
        <mxCell id="2Gsh4tW_Gu2w8K7v1lou-56" value="LC_SEGMENT (__DATA_CONST)" style="shape=partialRectangle;html=1;whiteSpace=wrap;connectable=0;overflow=hidden;fillColor=none;top=0;left=0;bottom=0;right=0;strokeColor=#028090;fontColor=#E4FDE1;fontFamily=Architects Daughter;fontSource=https%3A%2F%2Ffonts.googleapis.com%2Fcss%3Ffamily%3DArchitects%2BDaughter;" parent="2Gsh4tW_Gu2w8K7v1lou-55" vertex="1">
          <mxGeometry width="210" height="47" as="geometry" />
        </mxCell>
        <mxCell id="2Gsh4tW_Gu2w8K7v1lou-57" value="" style="shape=partialRectangle;html=1;whiteSpace=wrap;collapsible=0;dropTarget=0;pointerEvents=0;fillColor=none;top=0;left=0;bottom=0;right=0;points=[[0,0.5],[1,0.5]];portConstraint=eastwest;strokeColor=#028090;fontColor=#E4FDE1;" parent="2Gsh4tW_Gu2w8K7v1lou-52" vertex="1">
          <mxGeometry y="95" width="210" height="48" as="geometry" />
        </mxCell>
        <mxCell id="2Gsh4tW_Gu2w8K7v1lou-58" value="LC_SEGMENT (__DATA)" style="shape=partialRectangle;html=1;whiteSpace=wrap;connectable=0;overflow=hidden;fillColor=none;top=0;left=0;bottom=0;right=0;strokeColor=#028090;fontColor=#E4FDE1;fontFamily=Architects Daughter;fontSource=https%3A%2F%2Ffonts.googleapis.com%2Fcss%3Ffamily%3DArchitects%2BDaughter;" parent="2Gsh4tW_Gu2w8K7v1lou-57" vertex="1">
          <mxGeometry width="210" height="48" as="geometry" />
        </mxCell>
        <mxCell id="2Gsh4tW_Gu2w8K7v1lou-59" value="" style="shape=partialRectangle;html=1;whiteSpace=wrap;collapsible=0;dropTarget=0;pointerEvents=0;fillColor=none;top=0;left=0;bottom=0;right=0;points=[[0,0.5],[1,0.5]];portConstraint=eastwest;strokeColor=#028090;fontColor=#E4FDE1;" parent="2Gsh4tW_Gu2w8K7v1lou-52" vertex="1">
          <mxGeometry y="143" width="210" height="45" as="geometry" />
        </mxCell>
        <mxCell id="2Gsh4tW_Gu2w8K7v1lou-60" value="LC_SEGMENT (__LINK_EDIT)" style="shape=partialRectangle;html=1;whiteSpace=wrap;connectable=0;overflow=hidden;fillColor=none;top=0;left=0;bottom=0;right=0;strokeColor=#028090;fontColor=#E4FDE1;fontFamily=Architects Daughter;fontSource=https%3A%2F%2Ffonts.googleapis.com%2Fcss%3Ffamily%3DArchitects%2BDaughter;" parent="2Gsh4tW_Gu2w8K7v1lou-59" vertex="1">
          <mxGeometry width="210" height="45" as="geometry" />
        </mxCell>
        <mxCell id="2Gsh4tW_Gu2w8K7v1lou-61" value="" style="shape=partialRectangle;html=1;whiteSpace=wrap;collapsible=0;dropTarget=0;pointerEvents=0;fillColor=none;top=0;left=0;bottom=0;right=0;points=[[0,0.5],[1,0.5]];portConstraint=eastwest;strokeColor=#028090;fontColor=#E4FDE1;" parent="2Gsh4tW_Gu2w8K7v1lou-52" vertex="1">
          <mxGeometry y="188" width="210" height="48" as="geometry" />
        </mxCell>
        <mxCell id="2Gsh4tW_Gu2w8K7v1lou-62" value="..." style="shape=partialRectangle;html=1;whiteSpace=wrap;connectable=0;overflow=hidden;fillColor=none;top=0;left=0;bottom=0;right=0;strokeColor=#028090;fontColor=#E4FDE1;fontFamily=Architects Daughter;fontSource=https%3A%2F%2Ffonts.googleapis.com%2Fcss%3Ffamily%3DArchitects%2BDaughter;" parent="2Gsh4tW_Gu2w8K7v1lou-61" vertex="1">
          <mxGeometry width="210" height="48" as="geometry" />
        </mxCell>
        <mxCell id="2Gsh4tW_Gu2w8K7v1lou-63" value="" style="shape=partialRectangle;html=1;whiteSpace=wrap;collapsible=0;dropTarget=0;pointerEvents=0;fillColor=none;top=0;left=0;bottom=0;right=0;points=[[0,0.5],[1,0.5]];portConstraint=eastwest;strokeColor=#028090;fontColor=#E4FDE1;" parent="2Gsh4tW_Gu2w8K7v1lou-52" vertex="1">
          <mxGeometry y="236" width="210" height="47" as="geometry" />
        </mxCell>
        <mxCell id="2Gsh4tW_Gu2w8K7v1lou-64" value="LC_SYMTAB" style="shape=partialRectangle;html=1;whiteSpace=wrap;connectable=0;overflow=hidden;fillColor=none;top=0;left=0;bottom=0;right=0;strokeColor=#028090;fontColor=#E4FDE1;fontFamily=Architects Daughter;fontSource=https%3A%2F%2Ffonts.googleapis.com%2Fcss%3Ffamily%3DArchitects%2BDaughter;" parent="2Gsh4tW_Gu2w8K7v1lou-63" vertex="1">
          <mxGeometry width="210" height="47" as="geometry" />
        </mxCell>
        <mxCell id="2Gsh4tW_Gu2w8K7v1lou-65" value="" style="shape=partialRectangle;html=1;whiteSpace=wrap;collapsible=0;dropTarget=0;pointerEvents=0;fillColor=none;top=0;left=0;bottom=0;right=0;points=[[0,0.5],[1,0.5]];portConstraint=eastwest;strokeColor=#028090;fontColor=#E4FDE1;" parent="2Gsh4tW_Gu2w8K7v1lou-52" vertex="1">
          <mxGeometry y="283" width="210" height="48" as="geometry" />
        </mxCell>
        <mxCell id="2Gsh4tW_Gu2w8K7v1lou-66" value="LC_DYSYMTAB" style="shape=partialRectangle;html=1;whiteSpace=wrap;connectable=0;overflow=hidden;fillColor=none;top=0;left=0;bottom=0;right=0;strokeColor=#028090;fontColor=#E4FDE1;fontFamily=Architects Daughter;fontSource=https%3A%2F%2Ffonts.googleapis.com%2Fcss%3Ffamily%3DArchitects%2BDaughter;" parent="2Gsh4tW_Gu2w8K7v1lou-65" vertex="1">
          <mxGeometry width="210" height="48" as="geometry" />
        </mxCell>
        <mxCell id="2Gsh4tW_Gu2w8K7v1lou-95" style="shape=partialRectangle;html=1;whiteSpace=wrap;collapsible=0;dropTarget=0;pointerEvents=0;fillColor=none;top=0;left=0;bottom=0;right=0;points=[[0,0.5],[1,0.5]];portConstraint=eastwest;strokeColor=#028090;fontColor=#E4FDE1;" parent="2Gsh4tW_Gu2w8K7v1lou-52" vertex="1">
          <mxGeometry y="331" width="210" height="47" as="geometry" />
        </mxCell>
        <mxCell id="2Gsh4tW_Gu2w8K7v1lou-96" value="..." style="shape=partialRectangle;html=1;whiteSpace=wrap;connectable=0;overflow=hidden;fillColor=none;top=0;left=0;bottom=0;right=0;strokeColor=#028090;fontColor=#E4FDE1;fontFamily=Architects Daughter;fontSource=https%3A%2F%2Ffonts.googleapis.com%2Fcss%3Ffamily%3DArchitects%2BDaughter;" parent="2Gsh4tW_Gu2w8K7v1lou-95" vertex="1">
          <mxGeometry width="210" height="47" as="geometry" />
        </mxCell>
        <mxCell id="2Gsh4tW_Gu2w8K7v1lou-73" value="Load Command" style="text;html=1;align=center;verticalAlign=middle;resizable=0;points=[];autosize=1;fontFamily=Architects Daughter;fontColor=#E4FDE1;fontSize=14;" parent="VxuPMkLRMoRYzOiPj_SF-3" vertex="1">
          <mxGeometry x="51" y="40" width="108" height="21" as="geometry" />
        </mxCell>
        <mxCell id="2Gsh4tW_Gu2w8K7v1lou-106" value="" style="shape=table;html=1;whiteSpace=wrap;startSize=0;container=1;collapsible=0;childLayout=tableLayout;comic=1;fillColor=#F45B69;strokeColor=#028090;fontColor=#E4FDE1;fontFamily=Architects Daughter;fontSource=https%3A%2F%2Ffonts.googleapis.com%2Fcss%3Ffamily%3DArchitects%2BDaughter;" parent="VxuPMkLRMoRYzOiPj_SF-3" vertex="1">
          <mxGeometry x="379" y="301" width="150" height="120" as="geometry" />
        </mxCell>
        <mxCell id="2Gsh4tW_Gu2w8K7v1lou-107" value="" style="shape=partialRectangle;html=1;whiteSpace=wrap;collapsible=0;dropTarget=0;pointerEvents=0;fillColor=none;top=0;left=0;bottom=0;right=0;points=[[0,0.5],[1,0.5]];portConstraint=eastwest;strokeColor=#028090;fontColor=#E4FDE1;" parent="2Gsh4tW_Gu2w8K7v1lou-106" vertex="1">
          <mxGeometry width="150" height="40" as="geometry" />
        </mxCell>
        <mxCell id="2Gsh4tW_Gu2w8K7v1lou-108" value="symbol table offset" style="shape=partialRectangle;html=1;whiteSpace=wrap;connectable=0;overflow=hidden;fillColor=none;top=0;left=0;bottom=0;right=0;strokeColor=#028090;fontColor=#E4FDE1;fontFamily=Architects Daughter;fontSource=https%3A%2F%2Ffonts.googleapis.com%2Fcss%3Ffamily%3DArchitects%2BDaughter;" parent="2Gsh4tW_Gu2w8K7v1lou-107" vertex="1">
          <mxGeometry width="150" height="40" as="geometry" />
        </mxCell>
        <mxCell id="2Gsh4tW_Gu2w8K7v1lou-109" value="" style="shape=partialRectangle;html=1;whiteSpace=wrap;collapsible=0;dropTarget=0;pointerEvents=0;fillColor=none;top=0;left=0;bottom=0;right=0;points=[[0,0.5],[1,0.5]];portConstraint=eastwest;strokeColor=#028090;fontColor=#E4FDE1;" parent="2Gsh4tW_Gu2w8K7v1lou-106" vertex="1">
          <mxGeometry y="40" width="150" height="40" as="geometry" />
        </mxCell>
        <mxCell id="2Gsh4tW_Gu2w8K7v1lou-110" value="string table offset" style="shape=partialRectangle;html=1;whiteSpace=wrap;connectable=0;overflow=hidden;fillColor=none;top=0;left=0;bottom=0;right=0;strokeColor=#028090;fontColor=#E4FDE1;fontFamily=Architects Daughter;fontSource=https%3A%2F%2Ffonts.googleapis.com%2Fcss%3Ffamily%3DArchitects%2BDaughter;" parent="2Gsh4tW_Gu2w8K7v1lou-109" vertex="1">
          <mxGeometry width="150" height="40" as="geometry" />
        </mxCell>
        <mxCell id="2Gsh4tW_Gu2w8K7v1lou-111" value="" style="shape=partialRectangle;html=1;whiteSpace=wrap;collapsible=0;dropTarget=0;pointerEvents=0;fillColor=none;top=0;left=0;bottom=0;right=0;points=[[0,0.5],[1,0.5]];portConstraint=eastwest;strokeColor=#028090;fontColor=#E4FDE1;" parent="2Gsh4tW_Gu2w8K7v1lou-106" vertex="1">
          <mxGeometry y="80" width="150" height="40" as="geometry" />
        </mxCell>
        <mxCell id="2Gsh4tW_Gu2w8K7v1lou-112" value="..." style="shape=partialRectangle;html=1;whiteSpace=wrap;connectable=0;overflow=hidden;fillColor=none;top=0;left=0;bottom=0;right=0;strokeColor=#028090;fontColor=#E4FDE1;fontFamily=Architects Daughter;fontSource=https%3A%2F%2Ffonts.googleapis.com%2Fcss%3Ffamily%3DArchitects%2BDaughter;" parent="2Gsh4tW_Gu2w8K7v1lou-111" vertex="1">
          <mxGeometry width="150" height="40" as="geometry" />
        </mxCell>
        <mxCell id="2Gsh4tW_Gu2w8K7v1lou-134" value="" style="shape=table;html=1;whiteSpace=wrap;startSize=0;container=1;collapsible=0;childLayout=tableLayout;comic=1;fillColor=#F45B69;strokeColor=#028090;fontColor=#E4FDE1;fontFamily=Architects Daughter;fontSource=https%3A%2F%2Ffonts.googleapis.com%2Fcss%3Ffamily%3DArchitects%2BDaughter;" parent="VxuPMkLRMoRYzOiPj_SF-3" vertex="1">
          <mxGeometry x="379" y="470" width="150" height="80" as="geometry" />
        </mxCell>
        <mxCell id="2Gsh4tW_Gu2w8K7v1lou-135" value="" style="shape=partialRectangle;html=1;whiteSpace=wrap;collapsible=0;dropTarget=0;pointerEvents=0;fillColor=none;top=0;left=0;bottom=0;right=0;points=[[0,0.5],[1,0.5]];portConstraint=eastwest;strokeColor=#028090;fontColor=#E4FDE1;" parent="2Gsh4tW_Gu2w8K7v1lou-134" vertex="1">
          <mxGeometry width="150" height="40" as="geometry" />
        </mxCell>
        <mxCell id="2Gsh4tW_Gu2w8K7v1lou-136" value="indirect symbol table offset" style="shape=partialRectangle;html=1;whiteSpace=wrap;connectable=0;overflow=hidden;fillColor=none;top=0;left=0;bottom=0;right=0;strokeColor=#028090;fontColor=#E4FDE1;fontFamily=Architects Daughter;fontSource=https%3A%2F%2Ffonts.googleapis.com%2Fcss%3Ffamily%3DArchitects%2BDaughter;" parent="2Gsh4tW_Gu2w8K7v1lou-135" vertex="1">
          <mxGeometry width="150" height="40" as="geometry" />
        </mxCell>
        <mxCell id="2Gsh4tW_Gu2w8K7v1lou-137" value="" style="shape=partialRectangle;html=1;whiteSpace=wrap;collapsible=0;dropTarget=0;pointerEvents=0;fillColor=none;top=0;left=0;bottom=0;right=0;points=[[0,0.5],[1,0.5]];portConstraint=eastwest;strokeColor=#028090;fontColor=#E4FDE1;" parent="2Gsh4tW_Gu2w8K7v1lou-134" vertex="1">
          <mxGeometry y="40" width="150" height="40" as="geometry" />
        </mxCell>
        <mxCell id="2Gsh4tW_Gu2w8K7v1lou-138" value="..." style="shape=partialRectangle;html=1;whiteSpace=wrap;connectable=0;overflow=hidden;fillColor=none;top=0;left=0;bottom=0;right=0;strokeColor=#028090;fontColor=#E4FDE1;fontFamily=Architects Daughter;fontSource=https%3A%2F%2Ffonts.googleapis.com%2Fcss%3Ffamily%3DArchitects%2BDaughter;" parent="2Gsh4tW_Gu2w8K7v1lou-137" vertex="1">
          <mxGeometry width="150" height="40" as="geometry" />
        </mxCell>
        <mxCell id="2Gsh4tW_Gu2w8K7v1lou-141" style="edgeStyle=orthogonalEdgeStyle;curved=0;rounded=1;sketch=0;orthogonalLoop=1;jettySize=auto;html=1;exitX=1;exitY=0.5;exitDx=0;exitDy=0;entryX=-0.027;entryY=0.1;entryDx=0;entryDy=0;entryPerimeter=0;strokeColor=#028090;fillColor=#F45B69;fontFamily=Architects Daughter;fontSource=https%3A%2F%2Ffonts.googleapis.com%2Fcss%3Ffamily%3DArchitects%2BDaughter;fontColor=#E4FDE1;labelBackgroundColor=#114B5F;" parent="VxuPMkLRMoRYzOiPj_SF-3" source="2Gsh4tW_Gu2w8K7v1lou-65" target="2Gsh4tW_Gu2w8K7v1lou-135" edge="1">
          <mxGeometry relative="1" as="geometry" />
        </mxCell>
        <mxCell id="2Gsh4tW_Gu2w8K7v1lou-142" value="" style="shape=table;html=1;whiteSpace=wrap;startSize=0;container=1;collapsible=0;childLayout=tableLayout;comic=1;fillColor=#F45B69;strokeColor=#028090;fontColor=#E4FDE1;fontFamily=Architects Daughter;fontSource=https%3A%2F%2Ffonts.googleapis.com%2Fcss%3Ffamily%3DArchitects%2BDaughter;" parent="VxuPMkLRMoRYzOiPj_SF-3" vertex="1">
          <mxGeometry x="379" y="40" width="150" height="80" as="geometry" />
        </mxCell>
        <mxCell id="2Gsh4tW_Gu2w8K7v1lou-143" value="" style="shape=partialRectangle;html=1;whiteSpace=wrap;collapsible=0;dropTarget=0;pointerEvents=0;fillColor=none;top=0;left=0;bottom=0;right=0;points=[[0,0.5],[1,0.5]];portConstraint=eastwest;strokeColor=#028090;fontColor=#E4FDE1;" parent="2Gsh4tW_Gu2w8K7v1lou-142" vertex="1">
          <mxGeometry width="150" height="40" as="geometry" />
        </mxCell>
        <mxCell id="2Gsh4tW_Gu2w8K7v1lou-144" value="__got section header" style="shape=partialRectangle;html=1;whiteSpace=wrap;connectable=0;overflow=hidden;fillColor=none;top=0;left=0;bottom=0;right=0;strokeColor=#028090;fontColor=#E4FDE1;fontFamily=Architects Daughter;fontSource=https%3A%2F%2Ffonts.googleapis.com%2Fcss%3Ffamily%3DArchitects%2BDaughter;" parent="2Gsh4tW_Gu2w8K7v1lou-143" vertex="1">
          <mxGeometry width="150" height="40" as="geometry" />
        </mxCell>
        <mxCell id="2Gsh4tW_Gu2w8K7v1lou-145" value="" style="shape=partialRectangle;html=1;whiteSpace=wrap;collapsible=0;dropTarget=0;pointerEvents=0;fillColor=none;top=0;left=0;bottom=0;right=0;points=[[0,0.5],[1,0.5]];portConstraint=eastwest;strokeColor=#028090;fontColor=#E4FDE1;" parent="2Gsh4tW_Gu2w8K7v1lou-142" vertex="1">
          <mxGeometry y="40" width="150" height="40" as="geometry" />
        </mxCell>
        <mxCell id="2Gsh4tW_Gu2w8K7v1lou-146" value="..." style="shape=partialRectangle;html=1;whiteSpace=wrap;connectable=0;overflow=hidden;fillColor=none;top=0;left=0;bottom=0;right=0;strokeColor=#028090;fontColor=#E4FDE1;fontFamily=Architects Daughter;fontSource=https%3A%2F%2Ffonts.googleapis.com%2Fcss%3Ffamily%3DArchitects%2BDaughter;" parent="2Gsh4tW_Gu2w8K7v1lou-145" vertex="1">
          <mxGeometry width="150" height="40" as="geometry" />
        </mxCell>
        <mxCell id="2Gsh4tW_Gu2w8K7v1lou-152" value="section heders" style="text;html=1;align=center;verticalAlign=middle;resizable=0;points=[];autosize=1;fontFamily=Architects Daughter;fontColor=#E4FDE1;fontSize=14;" parent="VxuPMkLRMoRYzOiPj_SF-3" vertex="1">
          <mxGeometry x="401" width="106" height="21" as="geometry" />
        </mxCell>
        <mxCell id="ad9JoqVfY1pqHOv-W9It-1" style="edgeStyle=orthogonalEdgeStyle;curved=0;rounded=1;sketch=0;orthogonalLoop=1;jettySize=auto;html=1;exitX=1;exitY=0.5;exitDx=0;exitDy=0;entryX=-0.02;entryY=0.05;entryDx=0;entryDy=0;strokeColor=#028090;fillColor=#F45B69;fontFamily=Architects Daughter;fontSource=https%3A%2F%2Ffonts.googleapis.com%2Fcss%3Ffamily%3DArchitects%2BDaughter;fontColor=#E4FDE1;entryPerimeter=0;labelBackgroundColor=#114B5F;" parent="VxuPMkLRMoRYzOiPj_SF-3" source="2Gsh4tW_Gu2w8K7v1lou-63" target="2Gsh4tW_Gu2w8K7v1lou-107" edge="1">
          <mxGeometry relative="1" as="geometry" />
        </mxCell>
        <mxCell id="9oApFqxwMHWe4sm1-NYA-7" style="edgeStyle=orthogonalEdgeStyle;curved=0;rounded=1;sketch=0;orthogonalLoop=1;jettySize=auto;html=1;exitX=1;exitY=0.5;exitDx=0;exitDy=0;entryX=-0.013;entryY=0.075;entryDx=0;entryDy=0;entryPerimeter=0;strokeColor=#028090;fillColor=#F45B69;fontColor=#E4FDE1;labelBackgroundColor=#114B5F;" parent="VxuPMkLRMoRYzOiPj_SF-3" source="2Gsh4tW_Gu2w8K7v1lou-55" target="2Gsh4tW_Gu2w8K7v1lou-143" edge="1">
          <mxGeometry relative="1" as="geometry" />
        </mxCell>
        <mxCell id="ad9JoqVfY1pqHOv-W9It-3" style="edgeStyle=orthogonalEdgeStyle;curved=0;rounded=1;sketch=0;orthogonalLoop=1;jettySize=auto;html=1;exitX=1;exitY=0.5;exitDx=0;exitDy=0;entryX=-0.033;entryY=0.075;entryDx=0;entryDy=0;strokeColor=#028090;fillColor=#F45B69;fontFamily=Architects Daughter;fontSource=https%3A%2F%2Ffonts.googleapis.com%2Fcss%3Ffamily%3DArchitects%2BDaughter;fontColor=#E4FDE1;entryPerimeter=0;labelBackgroundColor=#114B5F;" parent="vJ40E24VG2NGmPt7Oyjr-1" source="2Gsh4tW_Gu2w8K7v1lou-57" target="2Gsh4tW_Gu2w8K7v1lou-161" edge="1">
          <mxGeometry relative="1" as="geometry" />
        </mxCell>
      </root>
    </mxGraphModel>
  </diagram>
  <diagram id="sKZW60PV3cUoFSLiOSq4" name="Page-2">
    <mxGraphModel dx="1176" dy="738" grid="1" gridSize="10" guides="1" tooltips="1" connect="1" arrows="1" fold="1" page="1" pageScale="1" pageWidth="827" pageHeight="1169" background="#114B5F" math="0" shadow="0">
      <root>
        <mxCell id="YcNe39R3D3S5rr6-rrE4-0" />
        <mxCell id="YcNe39R3D3S5rr6-rrE4-1" parent="YcNe39R3D3S5rr6-rrE4-0" />
      </root>
    </mxGraphModel>
  </diagram>
</mxfile>
